<svg width="1200" height="630" xmlns="http://www.w3.org/2000/svg">
  <defs>
    <linearGradient id="bg" x1="0" y1="0" x2="1200" y2="630" gradientUnits="userSpaceOnUse">
      <stop offset="0%" stop-color="#001a00"/>
      <stop offset="100%" stop-color="#000000"/>
    </linearGradient>
    <linearGradient id="glow" x1="0" y1="0" x2="0" y2="1">
      <stop offset="0%" stop-color="#00ff00" stop-opacity="0.12"/>
      <stop offset="100%" stop-color="#00ff00" stop-opacity="0"/>
    </linearGradient>
    <style>
      @import url('https://fonts.googleapis.com/css2?family=Orbitron:wght@900&amp;family=JetBrains+Mono:wght@400&amp;display=swap');
    </style>
  </defs>

  <rect width="1200" height="630" fill="url(#bg)"/>
  <rect width="1200" height="315" fill="url(#glow)"/>

  <!-- Grid lines -->
  <line x1="0" y1="210" x2="1200" y2="210" stroke="#00ff00" stroke-opacity="0.04" stroke-width="1"/>
  <line x1="0" y1="420" x2="1200" y2="420" stroke="#00ff00" stroke-opacity="0.04" stroke-width="1"/>
  <line x1="400" y1="0" x2="400" y2="630" stroke="#00ff00" stroke-opacity="0.04" stroke-width="1"/>
  <line x1="800" y1="0" x2="800" y2="630" stroke="#00ff00" stroke-opacity="0.04" stroke-width="1"/>

  <!-- Border -->
  <rect x="24" y="24" width="1152" height="582" rx="20" fill="none" stroke="#00ff00" stroke-opacity="0.18" stroke-width="1.5"/>

  <!-- Contact icon -->
  <circle cx="148" cy="255" r="64" fill="none" stroke="#00ff00" stroke-opacity="0.5" stroke-width="12"/>
  <path d="M84 348 C84 312 110 290 148 290 C186 290 212 312 212 348" fill="none" stroke="#00ff00" stroke-opacity="0.5" stroke-width="12" stroke-linecap="round"/>

  <!-- WOLF text -->
  <text x="248" y="212" font-family="'Orbitron', monospace" font-weight="900" font-size="92" fill="#00ff00" letter-spacing="-2">WOLF</text>
  <text x="248" y="308" font-family="'Orbitron', monospace" font-weight="900" font-size="92" fill="#ffffff" fill-opacity="0.55" letter-spacing="-2">VCF</text>

  <!-- Tagline -->
  <text x="248" y="378" font-family="'JetBrains Mono', monospace" font-size="26" fill="#00ff00" fill-opacity="0.55" letter-spacing="2">// Crowd-powered contact collection</text>

  <!-- Bottom strip -->
  <rect x="24" y="540" width="1152" height="1" fill="#00ff00" fill-opacity="0.12"/>
  <text x="600" y="588" font-family="'JetBrains Mono', monospace" font-size="20" fill="#00ff00" fill-opacity="0.3" text-anchor="middle" letter-spacing="4">WOLFVCF.APP — SHARE YOUR LINK. COLLECT CONTACTS. DOWNLOAD VCF.</text>
</svg>
